<mxfile host="Electron" modified="2024-07-23T11:55:50.553Z" agent="Mozilla/5.0 (Windows NT 10.0; Win64; x64) AppleWebKit/537.36 (KHTML, like Gecko) draw.io/24.5.3 Chrome/124.0.6367.207 Electron/30.0.6 Safari/537.36" etag="inKxI_mUjJLTv1WTKikp" version="24.5.3" type="device">
  <diagram name="Page-1" id="PxOXnX2hvujc-1MyUuAy">
    <mxGraphModel dx="1215" dy="990" grid="1" gridSize="10" guides="1" tooltips="1" connect="1" arrows="1" fold="1" page="1" pageScale="1" pageWidth="1169" pageHeight="827" math="0" shadow="0">
      <root>
        <mxCell id="0" />
        <mxCell id="1" parent="0" />
        <mxCell id="IIStNL2YqFQgCE2HZloc-8" value="&lt;h1 style=&quot;margin-top: 0px;&quot;&gt;Problem Statement&lt;/h1&gt;&lt;p&gt;Design a fraud detection system. When a user makes an online purchase, the system should evaluate the transaction and mark it as fraudulent/non-fraudulent.&lt;/p&gt;" style="text;html=1;whiteSpace=wrap;overflow=hidden;rounded=0;" parent="1" vertex="1">
          <mxGeometry x="40" y="40" width="1080" height="80" as="geometry" />
        </mxCell>
        <mxCell id="IIStNL2YqFQgCE2HZloc-9" value="&lt;h1 style=&quot;margin-top: 0px;&quot;&gt;Functional Requirements&lt;/h1&gt;&lt;p&gt;&lt;/p&gt;&lt;ol&gt;&lt;li&gt;User Authentication&lt;/li&gt;&lt;li&gt;Maintaining Transaction History&lt;/li&gt;&lt;li&gt;Detect Fradulent Transactions based on User and Transaction Data&lt;/li&gt;&lt;li&gt;No more than X% (configurable, for example, 1%) should be flagged as &quot;potentially fraudulent&quot; by the system.&lt;/li&gt;&lt;/ol&gt;&lt;p&gt;&lt;/p&gt;" style="text;html=1;whiteSpace=wrap;overflow=hidden;rounded=0;" parent="1" vertex="1">
          <mxGeometry x="40" y="160" width="1080" height="160" as="geometry" />
        </mxCell>
        <mxCell id="IIStNL2YqFQgCE2HZloc-10" value="&lt;h1 style=&quot;margin-top: 0px;&quot;&gt;Non-Functional Requirements&lt;/h1&gt;&lt;p&gt;&lt;/p&gt;&lt;ol&gt;&lt;li&gt;&lt;span style=&quot;background-color: initial;&quot;&gt;High scalability (to support both long-term and short-term increases in incoming transactions).&lt;/span&gt;&lt;br&gt;&lt;/li&gt;&lt;ol&gt;&lt;li&gt;The system should take no more than 5 seconds to evaluate each transaction.&lt;span style=&quot;background-color: initial;&quot;&gt;&lt;/span&gt;&lt;/li&gt;&lt;li&gt;If a transaction is flagged as &quot;potentially fraudulent&quot;, it should take no more than several hours to make the final decision on the transaction.&lt;/li&gt;&lt;/ol&gt;&lt;li&gt;High availability (to be always up and running so that all transactions are evaluated and fraudulent transactions are not missed).&lt;/li&gt;&lt;li&gt;High durability (transactions flagged as &quot;fraudulent&quot; should never be lost).&lt;/li&gt;&lt;li&gt;High extensibility (we should be able to integrate the system with additional data sources (e.g. userâ€™s past payment history) that allow to more accurately evaluate transactions).&lt;/li&gt;&lt;/ol&gt;&lt;p&gt;&lt;/p&gt;" style="text;html=1;whiteSpace=wrap;overflow=hidden;rounded=0;" parent="1" vertex="1">
          <mxGeometry x="40" y="320" width="1070" height="160" as="geometry" />
        </mxCell>
        <mxCell id="IIStNL2YqFQgCE2HZloc-14" style="edgeStyle=orthogonalEdgeStyle;rounded=0;orthogonalLoop=1;jettySize=auto;html=1;exitX=1;exitY=0.3333333333333333;exitDx=0;exitDy=0;exitPerimeter=0;entryX=0;entryY=0.5;entryDx=0;entryDy=0;" parent="1" source="IIStNL2YqFQgCE2HZloc-11" target="IIStNL2YqFQgCE2HZloc-18" edge="1">
          <mxGeometry relative="1" as="geometry" />
        </mxCell>
        <mxCell id="IIStNL2YqFQgCE2HZloc-11" value="User/Customer" style="shape=umlActor;verticalLabelPosition=bottom;verticalAlign=top;html=1;outlineConnect=0;" parent="1" vertex="1">
          <mxGeometry x="40" y="900" width="30" height="60" as="geometry" />
        </mxCell>
        <mxCell id="IIStNL2YqFQgCE2HZloc-44" style="edgeStyle=orthogonalEdgeStyle;rounded=0;orthogonalLoop=1;jettySize=auto;html=1;entryX=0;entryY=0.5;entryDx=0;entryDy=0;" parent="1" source="IIStNL2YqFQgCE2HZloc-12" target="IIStNL2YqFQgCE2HZloc-43" edge="1">
          <mxGeometry relative="1" as="geometry" />
        </mxCell>
        <mxCell id="IIStNL2YqFQgCE2HZloc-12" value="Fraud Analysts" style="shape=umlActor;verticalLabelPosition=bottom;verticalAlign=top;html=1;outlineConnect=0;" parent="1" vertex="1">
          <mxGeometry x="50" y="1094" width="30" height="60" as="geometry" />
        </mxCell>
        <mxCell id="IIStNL2YqFQgCE2HZloc-21" style="edgeStyle=orthogonalEdgeStyle;rounded=0;orthogonalLoop=1;jettySize=auto;html=1;exitX=1.013;exitY=0.11;exitDx=0;exitDy=0;entryX=0;entryY=0.5;entryDx=0;entryDy=0;exitPerimeter=0;" parent="1" source="IIStNL2YqFQgCE2HZloc-13" target="IIStNL2YqFQgCE2HZloc-51" edge="1">
          <mxGeometry relative="1" as="geometry" />
        </mxCell>
        <mxCell id="IIStNL2YqFQgCE2HZloc-28" style="edgeStyle=orthogonalEdgeStyle;rounded=0;orthogonalLoop=1;jettySize=auto;html=1;entryX=0.5;entryY=1;entryDx=0;entryDy=0;" parent="1" source="IIStNL2YqFQgCE2HZloc-13" target="IIStNL2YqFQgCE2HZloc-27" edge="1">
          <mxGeometry relative="1" as="geometry" />
        </mxCell>
        <mxCell id="IIStNL2YqFQgCE2HZloc-46" style="edgeStyle=orthogonalEdgeStyle;rounded=0;orthogonalLoop=1;jettySize=auto;html=1;entryX=0;entryY=0.5;entryDx=0;entryDy=0;" parent="1" target="IIStNL2YqFQgCE2HZloc-23" edge="1">
          <mxGeometry relative="1" as="geometry">
            <mxPoint x="550" y="1090" as="sourcePoint" />
          </mxGeometry>
        </mxCell>
        <mxCell id="IIStNL2YqFQgCE2HZloc-13" value="API Gateway" style="rounded=0;whiteSpace=wrap;html=1;" parent="1" vertex="1">
          <mxGeometry x="430" y="878" width="120" height="380" as="geometry" />
        </mxCell>
        <mxCell id="IIStNL2YqFQgCE2HZloc-19" style="edgeStyle=orthogonalEdgeStyle;rounded=0;orthogonalLoop=1;jettySize=auto;html=1;entryX=0.013;entryY=0.11;entryDx=0;entryDy=0;entryPerimeter=0;" parent="1" source="IIStNL2YqFQgCE2HZloc-18" target="IIStNL2YqFQgCE2HZloc-13" edge="1">
          <mxGeometry relative="1" as="geometry">
            <mxPoint x="420" y="920" as="targetPoint" />
          </mxGeometry>
        </mxCell>
        <mxCell id="IIStNL2YqFQgCE2HZloc-55" style="edgeStyle=orthogonalEdgeStyle;rounded=0;orthogonalLoop=1;jettySize=auto;html=1;entryX=0;entryY=0.5;entryDx=0;entryDy=0;" parent="1" source="IIStNL2YqFQgCE2HZloc-18" target="IIStNL2YqFQgCE2HZloc-27" edge="1">
          <mxGeometry relative="1" as="geometry" />
        </mxCell>
        <mxCell id="IIStNL2YqFQgCE2HZloc-18" value="Online Store Front-End (Website/Mobile App)" style="rounded=0;whiteSpace=wrap;html=1;" parent="1" vertex="1">
          <mxGeometry x="190" y="890" width="120" height="60" as="geometry" />
        </mxCell>
        <mxCell id="IIStNL2YqFQgCE2HZloc-25" style="edgeStyle=orthogonalEdgeStyle;rounded=0;orthogonalLoop=1;jettySize=auto;html=1;exitX=0.75;exitY=0;exitDx=0;exitDy=0;entryX=0.5;entryY=1;entryDx=0;entryDy=0;entryPerimeter=0;" parent="1" source="IIStNL2YqFQgCE2HZloc-20" target="IIStNL2YqFQgCE2HZloc-60" edge="1">
          <mxGeometry relative="1" as="geometry" />
        </mxCell>
        <mxCell id="IIStNL2YqFQgCE2HZloc-20" value="Order Management Service" style="rounded=0;whiteSpace=wrap;html=1;" parent="1" vertex="1">
          <mxGeometry x="800" y="890" width="120" height="60" as="geometry" />
        </mxCell>
        <mxCell id="IIStNL2YqFQgCE2HZloc-22" value="Payment Gateway Service" style="rounded=0;whiteSpace=wrap;html=1;" parent="1" vertex="1">
          <mxGeometry x="800" y="650" width="120" height="60" as="geometry" />
        </mxCell>
        <mxCell id="IIStNL2YqFQgCE2HZloc-37" style="edgeStyle=orthogonalEdgeStyle;rounded=0;orthogonalLoop=1;jettySize=auto;html=1;exitX=0.5;exitY=1;exitDx=0;exitDy=0;" parent="1" source="IIStNL2YqFQgCE2HZloc-23" target="IIStNL2YqFQgCE2HZloc-35" edge="1">
          <mxGeometry relative="1" as="geometry" />
        </mxCell>
        <mxCell id="pv1HvQ4LHkY-xHDhy26S-5" style="edgeStyle=orthogonalEdgeStyle;rounded=0;orthogonalLoop=1;jettySize=auto;html=1;entryX=0;entryY=0.5;entryDx=0;entryDy=0;" parent="1" source="IIStNL2YqFQgCE2HZloc-23" target="pv1HvQ4LHkY-xHDhy26S-1" edge="1">
          <mxGeometry relative="1" as="geometry" />
        </mxCell>
        <mxCell id="IIStNL2YqFQgCE2HZloc-23" value="Fraud Management Service" style="rounded=0;whiteSpace=wrap;html=1;" parent="1" vertex="1">
          <mxGeometry x="800" y="1060" width="120" height="60" as="geometry" />
        </mxCell>
        <mxCell id="IIStNL2YqFQgCE2HZloc-26" value="Order Transaction DB" style="shape=cylinder3;whiteSpace=wrap;html=1;boundedLbl=1;backgroundOutline=1;size=15;" parent="1" vertex="1">
          <mxGeometry x="1040" y="867.5" width="90" height="105" as="geometry" />
        </mxCell>
        <mxCell id="IIStNL2YqFQgCE2HZloc-27" value="Identity and Access Management&lt;br&gt;Service/Provider (i.e: AWS Cognito, Okta)" style="rounded=0;whiteSpace=wrap;html=1;" parent="1" vertex="1">
          <mxGeometry x="430" y="740" width="120" height="60" as="geometry" />
        </mxCell>
        <mxCell id="IIStNL2YqFQgCE2HZloc-29" value="Identity DB" style="shape=cylinder3;whiteSpace=wrap;html=1;boundedLbl=1;backgroundOutline=1;size=15;" parent="1" vertex="1">
          <mxGeometry x="380" y="580" width="90" height="105" as="geometry" />
        </mxCell>
        <mxCell id="IIStNL2YqFQgCE2HZloc-30" style="edgeStyle=orthogonalEdgeStyle;rounded=0;orthogonalLoop=1;jettySize=auto;html=1;entryX=0.5;entryY=1;entryDx=0;entryDy=0;entryPerimeter=0;exitX=0.25;exitY=0;exitDx=0;exitDy=0;" parent="1" source="IIStNL2YqFQgCE2HZloc-27" target="IIStNL2YqFQgCE2HZloc-29" edge="1">
          <mxGeometry relative="1" as="geometry" />
        </mxCell>
        <mxCell id="IIStNL2YqFQgCE2HZloc-32" style="edgeStyle=orthogonalEdgeStyle;rounded=0;orthogonalLoop=1;jettySize=auto;html=1;entryX=0;entryY=0.5;entryDx=0;entryDy=0;entryPerimeter=0;" parent="1" source="IIStNL2YqFQgCE2HZloc-20" target="IIStNL2YqFQgCE2HZloc-26" edge="1">
          <mxGeometry relative="1" as="geometry" />
        </mxCell>
        <mxCell id="IIStNL2YqFQgCE2HZloc-35" value="Fraudulent Transaction DB" style="shape=cylinder3;whiteSpace=wrap;html=1;boundedLbl=1;backgroundOutline=1;size=15;" parent="1" vertex="1">
          <mxGeometry x="815" y="1155" width="90" height="105" as="geometry" />
        </mxCell>
        <mxCell id="IIStNL2YqFQgCE2HZloc-45" style="edgeStyle=orthogonalEdgeStyle;rounded=0;orthogonalLoop=1;jettySize=auto;html=1;exitX=1;exitY=0.5;exitDx=0;exitDy=0;entryX=0;entryY=0.5;entryDx=0;entryDy=0;" parent="1" source="IIStNL2YqFQgCE2HZloc-43" edge="1">
          <mxGeometry relative="1" as="geometry">
            <mxPoint x="430" y="1124" as="targetPoint" />
          </mxGeometry>
        </mxCell>
        <mxCell id="IIStNL2YqFQgCE2HZloc-56" style="edgeStyle=orthogonalEdgeStyle;rounded=0;orthogonalLoop=1;jettySize=auto;html=1;entryX=0;entryY=0.5;entryDx=0;entryDy=0;" parent="1" source="IIStNL2YqFQgCE2HZloc-43" target="IIStNL2YqFQgCE2HZloc-27" edge="1">
          <mxGeometry relative="1" as="geometry" />
        </mxCell>
        <mxCell id="IIStNL2YqFQgCE2HZloc-43" value="Fraud Management Front-End" style="rounded=0;whiteSpace=wrap;html=1;" parent="1" vertex="1">
          <mxGeometry x="190" y="1094" width="120" height="60" as="geometry" />
        </mxCell>
        <mxCell id="IIStNL2YqFQgCE2HZloc-76" style="edgeStyle=orthogonalEdgeStyle;rounded=0;orthogonalLoop=1;jettySize=auto;html=1;entryX=1;entryY=0.5;entryDx=0;entryDy=0;exitX=0.25;exitY=0;exitDx=0;exitDy=0;" parent="1" source="IIStNL2YqFQgCE2HZloc-51" target="IIStNL2YqFQgCE2HZloc-27" edge="1">
          <mxGeometry relative="1" as="geometry">
            <Array as="points">
              <mxPoint x="640" y="850" />
              <mxPoint x="610" y="850" />
              <mxPoint x="610" y="770" />
            </Array>
          </mxGeometry>
        </mxCell>
        <mxCell id="IIStNL2YqFQgCE2HZloc-51" value="Shopping Cart Service" style="rounded=0;whiteSpace=wrap;html=1;" parent="1" vertex="1">
          <mxGeometry x="610" y="890" width="120" height="60" as="geometry" />
        </mxCell>
        <mxCell id="IIStNL2YqFQgCE2HZloc-53" value="Shopping Cart DB" style="shape=cylinder3;whiteSpace=wrap;html=1;boundedLbl=1;backgroundOutline=1;size=15;" parent="1" vertex="1">
          <mxGeometry x="625" y="713.5" width="90" height="105" as="geometry" />
        </mxCell>
        <mxCell id="IIStNL2YqFQgCE2HZloc-54" style="edgeStyle=orthogonalEdgeStyle;rounded=0;orthogonalLoop=1;jettySize=auto;html=1;entryX=0.5;entryY=1;entryDx=0;entryDy=0;entryPerimeter=0;" parent="1" source="IIStNL2YqFQgCE2HZloc-51" target="IIStNL2YqFQgCE2HZloc-53" edge="1">
          <mxGeometry relative="1" as="geometry" />
        </mxCell>
        <mxCell id="IIStNL2YqFQgCE2HZloc-61" style="edgeStyle=orthogonalEdgeStyle;rounded=0;orthogonalLoop=1;jettySize=auto;html=1;entryX=0.75;entryY=1;entryDx=0;entryDy=0;" parent="1" source="IIStNL2YqFQgCE2HZloc-60" target="IIStNL2YqFQgCE2HZloc-22" edge="1">
          <mxGeometry relative="1" as="geometry" />
        </mxCell>
        <mxCell id="IIStNL2YqFQgCE2HZloc-71" style="edgeStyle=orthogonalEdgeStyle;rounded=0;orthogonalLoop=1;jettySize=auto;html=1;entryX=1;entryY=0.25;entryDx=0;entryDy=0;exitX=1;exitY=0.5;exitDx=0;exitDy=0;exitPerimeter=0;" parent="1" source="IIStNL2YqFQgCE2HZloc-60" target="IIStNL2YqFQgCE2HZloc-23" edge="1">
          <mxGeometry relative="1" as="geometry">
            <Array as="points">
              <mxPoint x="990" y="789" />
              <mxPoint x="990" y="1075" />
            </Array>
          </mxGeometry>
        </mxCell>
        <mxCell id="IIStNL2YqFQgCE2HZloc-81" style="edgeStyle=orthogonalEdgeStyle;rounded=0;orthogonalLoop=1;jettySize=auto;html=1;entryX=0.5;entryY=1;entryDx=0;entryDy=0;" parent="1" source="IIStNL2YqFQgCE2HZloc-60" target="IIStNL2YqFQgCE2HZloc-80" edge="1">
          <mxGeometry relative="1" as="geometry">
            <Array as="points">
              <mxPoint x="1050" y="770" />
            </Array>
          </mxGeometry>
        </mxCell>
        <mxCell id="IIStNL2YqFQgCE2HZloc-60" value="Order Events" style="outlineConnect=0;dashed=0;verticalLabelPosition=bottom;verticalAlign=top;align=center;html=1;shape=mxgraph.aws3.topic_2;fillColor=#D9A741;gradientColor=none;" parent="1" vertex="1">
          <mxGeometry x="870" y="760" width="93" height="58.5" as="geometry" />
        </mxCell>
        <mxCell id="IIStNL2YqFQgCE2HZloc-70" style="edgeStyle=orthogonalEdgeStyle;rounded=0;orthogonalLoop=1;jettySize=auto;html=1;entryX=0;entryY=0.25;entryDx=0;entryDy=0;exitX=0;exitY=0.5;exitDx=0;exitDy=0;exitPerimeter=0;" parent="1" source="IIStNL2YqFQgCE2HZloc-62" target="IIStNL2YqFQgCE2HZloc-23" edge="1">
          <mxGeometry relative="1" as="geometry">
            <Array as="points">
              <mxPoint x="740" y="789" />
              <mxPoint x="740" y="1075" />
            </Array>
          </mxGeometry>
        </mxCell>
        <mxCell id="IIStNL2YqFQgCE2HZloc-62" value="Payment Events" style="outlineConnect=0;dashed=0;verticalLabelPosition=bottom;verticalAlign=top;align=center;html=1;shape=mxgraph.aws3.topic_2;fillColor=#D9A741;gradientColor=none;" parent="1" vertex="1">
          <mxGeometry x="760" y="760" width="93" height="58.5" as="geometry" />
        </mxCell>
        <mxCell id="IIStNL2YqFQgCE2HZloc-63" style="edgeStyle=orthogonalEdgeStyle;rounded=0;orthogonalLoop=1;jettySize=auto;html=1;exitX=0.25;exitY=1;exitDx=0;exitDy=0;entryX=0.5;entryY=0;entryDx=0;entryDy=0;entryPerimeter=0;" parent="1" source="IIStNL2YqFQgCE2HZloc-22" target="IIStNL2YqFQgCE2HZloc-62" edge="1">
          <mxGeometry relative="1" as="geometry" />
        </mxCell>
        <mxCell id="IIStNL2YqFQgCE2HZloc-64" style="edgeStyle=orthogonalEdgeStyle;rounded=0;orthogonalLoop=1;jettySize=auto;html=1;exitX=0.5;exitY=1;exitDx=0;exitDy=0;exitPerimeter=0;entryX=0.25;entryY=0;entryDx=0;entryDy=0;" parent="1" source="IIStNL2YqFQgCE2HZloc-62" target="IIStNL2YqFQgCE2HZloc-20" edge="1">
          <mxGeometry relative="1" as="geometry" />
        </mxCell>
        <mxCell id="IIStNL2YqFQgCE2HZloc-68" style="edgeStyle=orthogonalEdgeStyle;rounded=0;orthogonalLoop=1;jettySize=auto;html=1;entryX=0;entryY=0.25;entryDx=0;entryDy=0;exitX=0.5;exitY=1;exitDx=0;exitDy=0;exitPerimeter=0;" parent="1" source="IIStNL2YqFQgCE2HZloc-65" target="IIStNL2YqFQgCE2HZloc-23" edge="1">
          <mxGeometry relative="1" as="geometry">
            <Array as="points">
              <mxPoint x="670" y="1075" />
            </Array>
          </mxGeometry>
        </mxCell>
        <mxCell id="1QGBhbSP4vkz5-FlB4Tq-3" style="edgeStyle=orthogonalEdgeStyle;rounded=0;orthogonalLoop=1;jettySize=auto;html=1;entryX=0;entryY=0.5;entryDx=0;entryDy=0;" parent="1" source="IIStNL2YqFQgCE2HZloc-65" target="IIStNL2YqFQgCE2HZloc-20" edge="1">
          <mxGeometry relative="1" as="geometry" />
        </mxCell>
        <mxCell id="IIStNL2YqFQgCE2HZloc-65" value="Shoping cart events" style="outlineConnect=0;dashed=0;verticalLabelPosition=bottom;verticalAlign=top;align=center;html=1;shape=mxgraph.aws3.topic_2;fillColor=#D9A741;gradientColor=none;" parent="1" vertex="1">
          <mxGeometry x="623.5" y="990" width="93" height="58.5" as="geometry" />
        </mxCell>
        <mxCell id="IIStNL2YqFQgCE2HZloc-67" style="edgeStyle=orthogonalEdgeStyle;rounded=0;orthogonalLoop=1;jettySize=auto;html=1;entryX=0.5;entryY=0;entryDx=0;entryDy=0;entryPerimeter=0;" parent="1" source="IIStNL2YqFQgCE2HZloc-51" target="IIStNL2YqFQgCE2HZloc-65" edge="1">
          <mxGeometry relative="1" as="geometry" />
        </mxCell>
        <mxCell id="1QGBhbSP4vkz5-FlB4Tq-2" style="edgeStyle=orthogonalEdgeStyle;rounded=0;orthogonalLoop=1;jettySize=auto;html=1;entryX=0.5;entryY=1;entryDx=0;entryDy=0;" parent="1" source="IIStNL2YqFQgCE2HZloc-72" target="IIStNL2YqFQgCE2HZloc-20" edge="1">
          <mxGeometry relative="1" as="geometry" />
        </mxCell>
        <mxCell id="pv1HvQ4LHkY-xHDhy26S-2" style="edgeStyle=orthogonalEdgeStyle;rounded=0;orthogonalLoop=1;jettySize=auto;html=1;exitX=1;exitY=0.5;exitDx=0;exitDy=0;exitPerimeter=0;" parent="1" source="IIStNL2YqFQgCE2HZloc-72" target="pv1HvQ4LHkY-xHDhy26S-1" edge="1">
          <mxGeometry relative="1" as="geometry" />
        </mxCell>
        <mxCell id="IIStNL2YqFQgCE2HZloc-72" value="Fraud Events" style="outlineConnect=0;dashed=0;verticalLabelPosition=bottom;verticalAlign=top;align=center;html=1;shape=mxgraph.aws3.topic_2;fillColor=#D9A741;gradientColor=none;" parent="1" vertex="1">
          <mxGeometry x="813" y="972.5" width="93" height="58.5" as="geometry" />
        </mxCell>
        <mxCell id="IIStNL2YqFQgCE2HZloc-79" style="edgeStyle=orthogonalEdgeStyle;rounded=0;orthogonalLoop=1;jettySize=auto;html=1;entryX=0;entryY=0.75;entryDx=0;entryDy=0;" parent="1" source="IIStNL2YqFQgCE2HZloc-77" target="IIStNL2YqFQgCE2HZloc-23" edge="1">
          <mxGeometry relative="1" as="geometry">
            <Array as="points">
              <mxPoint x="580" y="1105" />
            </Array>
          </mxGeometry>
        </mxCell>
        <mxCell id="IIStNL2YqFQgCE2HZloc-77" value="Identity Events" style="outlineConnect=0;dashed=0;verticalLabelPosition=bottom;verticalAlign=top;align=center;html=1;shape=mxgraph.aws3.topic_2;fillColor=#D9A741;gradientColor=none;" parent="1" vertex="1">
          <mxGeometry x="500" y="613.25" width="93" height="58.5" as="geometry" />
        </mxCell>
        <mxCell id="IIStNL2YqFQgCE2HZloc-78" style="edgeStyle=orthogonalEdgeStyle;rounded=0;orthogonalLoop=1;jettySize=auto;html=1;exitX=0.75;exitY=0;exitDx=0;exitDy=0;entryX=0.5;entryY=1;entryDx=0;entryDy=0;entryPerimeter=0;" parent="1" source="IIStNL2YqFQgCE2HZloc-27" target="IIStNL2YqFQgCE2HZloc-77" edge="1">
          <mxGeometry relative="1" as="geometry" />
        </mxCell>
        <mxCell id="IIStNL2YqFQgCE2HZloc-80" value="Customer Communication Service" style="rounded=0;whiteSpace=wrap;html=1;" parent="1" vertex="1">
          <mxGeometry x="990" y="671.75" width="120" height="60" as="geometry" />
        </mxCell>
        <mxCell id="IIStNL2YqFQgCE2HZloc-82" value="Customer Comm DB" style="shape=cylinder3;whiteSpace=wrap;html=1;boundedLbl=1;backgroundOutline=1;size=15;" parent="1" vertex="1">
          <mxGeometry x="1005" y="530" width="90" height="105" as="geometry" />
        </mxCell>
        <mxCell id="IIStNL2YqFQgCE2HZloc-83" style="edgeStyle=orthogonalEdgeStyle;rounded=0;orthogonalLoop=1;jettySize=auto;html=1;entryX=0.5;entryY=1;entryDx=0;entryDy=0;entryPerimeter=0;" parent="1" source="IIStNL2YqFQgCE2HZloc-80" target="IIStNL2YqFQgCE2HZloc-82" edge="1">
          <mxGeometry relative="1" as="geometry" />
        </mxCell>
        <mxCell id="IIStNL2YqFQgCE2HZloc-85" value="Payment DB" style="shape=cylinder3;whiteSpace=wrap;html=1;boundedLbl=1;backgroundOutline=1;size=15;" parent="1" vertex="1">
          <mxGeometry x="815" y="508.25" width="90" height="105" as="geometry" />
        </mxCell>
        <mxCell id="IIStNL2YqFQgCE2HZloc-87" style="edgeStyle=orthogonalEdgeStyle;rounded=0;orthogonalLoop=1;jettySize=auto;html=1;entryX=0.5;entryY=1;entryDx=0;entryDy=0;entryPerimeter=0;" parent="1" source="IIStNL2YqFQgCE2HZloc-22" target="IIStNL2YqFQgCE2HZloc-85" edge="1">
          <mxGeometry relative="1" as="geometry">
            <mxPoint x="850" y="603" as="targetPoint" />
          </mxGeometry>
        </mxCell>
        <mxCell id="1QGBhbSP4vkz5-FlB4Tq-1" style="edgeStyle=orthogonalEdgeStyle;rounded=0;orthogonalLoop=1;jettySize=auto;html=1;entryX=0.5;entryY=1;entryDx=0;entryDy=0;entryPerimeter=0;" parent="1" source="IIStNL2YqFQgCE2HZloc-23" target="IIStNL2YqFQgCE2HZloc-72" edge="1">
          <mxGeometry relative="1" as="geometry" />
        </mxCell>
        <mxCell id="pv1HvQ4LHkY-xHDhy26S-4" style="edgeStyle=orthogonalEdgeStyle;rounded=0;orthogonalLoop=1;jettySize=auto;html=1;exitX=0.5;exitY=1;exitDx=0;exitDy=0;" parent="1" source="pv1HvQ4LHkY-xHDhy26S-1" target="pv1HvQ4LHkY-xHDhy26S-3" edge="1">
          <mxGeometry relative="1" as="geometry" />
        </mxCell>
        <mxCell id="pv1HvQ4LHkY-xHDhy26S-1" value="Fraud Analyzer Service" style="rounded=0;whiteSpace=wrap;html=1;" parent="1" vertex="1">
          <mxGeometry x="1025" y="1060" width="120" height="60" as="geometry" />
        </mxCell>
        <mxCell id="pv1HvQ4LHkY-xHDhy26S-8" style="edgeStyle=orthogonalEdgeStyle;rounded=0;orthogonalLoop=1;jettySize=auto;html=1;entryX=0.5;entryY=0;entryDx=0;entryDy=0;" parent="1" source="pv1HvQ4LHkY-xHDhy26S-3" target="pv1HvQ4LHkY-xHDhy26S-6" edge="1">
          <mxGeometry relative="1" as="geometry" />
        </mxCell>
        <mxCell id="pv1HvQ4LHkY-xHDhy26S-3" value="Fraud Data DB" style="shape=cylinder3;whiteSpace=wrap;html=1;boundedLbl=1;backgroundOutline=1;size=15;" parent="1" vertex="1">
          <mxGeometry x="1040" y="1155" width="90" height="105" as="geometry" />
        </mxCell>
        <mxCell id="pv1HvQ4LHkY-xHDhy26S-6" value="Fraud Machine Learning Models" style="rounded=0;whiteSpace=wrap;html=1;" parent="1" vertex="1">
          <mxGeometry x="1025" y="1310" width="120" height="60" as="geometry" />
        </mxCell>
        <mxCell id="pv1HvQ4LHkY-xHDhy26S-7" style="edgeStyle=orthogonalEdgeStyle;rounded=0;orthogonalLoop=1;jettySize=auto;html=1;entryX=0.5;entryY=1;entryDx=0;entryDy=0;entryPerimeter=0;" parent="1" source="pv1HvQ4LHkY-xHDhy26S-6" target="pv1HvQ4LHkY-xHDhy26S-3" edge="1">
          <mxGeometry relative="1" as="geometry" />
        </mxCell>
      </root>
    </mxGraphModel>
  </diagram>
</mxfile>
